<?xml version="1.0" encoding="utf-8"?>
<!-- Generator: Adobe Illustrator 17.0.0, SVG Export Plug-In . SVG Version: 6.00 Build 0)  -->
<!DOCTYPE svg PUBLIC "-//W3C//DTD SVG 1.1//EN" "http://www.w3.org/Graphics/SVG/1.1/DTD/svg11.dtd">
<svg version="1.1" id="af8363df-f336-47a7-a0a7-f658d27a6b25"
	 xmlns="http://www.w3.org/2000/svg" xmlns:xlink="http://www.w3.org/1999/xlink" x="0px" y="0px" width="1124.68px"
	 height="770.77px" viewBox="0 0 1124.68 770.77" enable-background="new 0 0 1124.68 770.77" xml:space="preserve">
<title>firmware</title>
<path opacity="0.1" fill="#6DBD63" enable-background="new    " d="M-245.292,346.393c-37.66,47.88-23,117.84,0.9,173.86
	c8,18.76,17.08,38.6,13.7,58.72c-4.13,24.6-26.09,42.58-49.14,52.12c-42,17.38-92.3,13.24-130.91-10.78
	c-33.36-20.76-57.26-54.51-91.19-74.32c-56.83-33.17-129.07-20.65-190.73,2.19c-43.63,16.16-91.32,37.17-134.67,20.28
	c-30.5-11.88-51.59-40.8-63.08-71.45c-5.55-14.8-9.57-30.82-20.16-42.55c-6.3-7-14.51-11.92-22.93-16.1
	c-76.87-38.11-174-17.7-248.63-60c-50.43-28.55-82.71-82.41-97-138.56c-14.29-56.15-12.63-115-9-172.88
	c2.58-41.1,7.21-85,33.47-116.7c27.78-33.56,75.46-46,118.55-39.66c43.09,6.34,82.16,29.11,116.52,55.88
	c42.95,33.46,82.78,75.13,135.51,88.69c35.91,9.23,73.69,4.18,110.72,2.43c61.92-2.92,123.86,3.58,185.43,10.7
	c58.95,6.81,118.32,14.31,174.48,33.49c39.74,13.57,71.6,38.2,109.13,55.41c24.46,11.22,51.13,14.31,74.29,28.6
	c28.53,17.6,54.68,48.21,47.37,84C-189.612,303.893-225.302,320.973-245.292,346.393z"/>
<path opacity="0.5" fill="#DEE3F3" enable-background="new    " d="M624.01,428.92c-3.42,3.42-4.2,8.12-5.41,12.48
	c-3.47,12.44-11.63,23.92-23,32.35c-8.33,6.18-19.51,13-17.53,22.23c0.47,2.2,1.72,4.26,2,6.48c1.42,9.61-13.27,14.67-19,23.08
	c-4.24,6.26-3.1,14-1.85,21.16c1.54,8.73,3.41,18.05,10.57,24.48c1.93,1.73,4.24,3.24,5.59,5.33c3,4.69,0.4,10.83,3.14,15.64
	c3.66,6.41,15.2,6.69,21.9,2.37s9.79-11.43,12.76-18.09c8-18,17.88-36.07,34.55-49.19c16-12.57,39.23-22.33,42-40.63
	c1.18-7.85-1.8-16.45,2.75-23.36c2.15-3.27,5.74-5.69,8.18-8.81c7.25-9.3,1.85-22.75-8.76-29.36
	C675.91,415.12,637.95,414.96,624.01,428.92z"/>
<ellipse opacity="0.5" fill="#DEE3F3" enable-background="new    " cx="817.36" cy="390.84" rx="155.03" ry="26.04"/>
<linearGradient id="SVGID_1_" gradientUnits="userSpaceOnUse" x1="1062.245" y1="116.85" x2="1062.245" y2="144.05" gradientTransform="matrix(1 0 0 -1 -256 425.77)">
	<stop  offset="0" style="stop-color:#808080;stop-opacity:0.25"/>
	<stop  offset="0.54" style="stop-color:#808080;stop-opacity:0.12"/>
	<stop  offset="1" style="stop-color:#808080;stop-opacity:0.1"/>
</linearGradient>
<polygon fill="url(#SVGID_1_)" points="841.82,290.09 853.33,290.09 853.33,282.96 853.33,281.72 759.16,281.72 759.16,282.96 
	759.16,290.09 770.67,290.09 770.67,298.46 751.83,298.46 751.83,308.92 860.66,308.92 860.66,298.46 841.82,298.46 "/>
<linearGradient id="SVGID_2_" gradientUnits="userSpaceOnUse" x1="1099.9105" y1="28.44" x2="1099.9105" y2="309.6946" gradientTransform="matrix(1 0 0 -1 -293.66 360.4)">
	<stop  offset="0" style="stop-color:#808080;stop-opacity:0.25"/>
	<stop  offset="0.54" style="stop-color:#808080;stop-opacity:0.12"/>
	<stop  offset="1" style="stop-color:#808080;stop-opacity:0.1"/>
</linearGradient>
<path fill="url(#SVGID_2_)" d="M918.92,297.75L918.92,297.75c0.812-9.765,0.611-19.587-0.6-29.31
	c-0.986-8.238-3.254-16.272-6.72-23.81c-6.06-12.7-14.69-19.6-22.26-23.34c-5.072-2.57-10.615-4.081-16.29-4.44
	c-0.596-3.999-4.321-6.757-8.319-6.161c-3.185,0.475-5.686,2.976-6.161,6.161V198H818.8v-10.46h53.54c3.347,0,6.06-2.713,6.06-6.06
	v-54.85c0-3.347-2.713-6.06-6.06-6.06h-20.3V66.51c2.923-1.321,4.802-4.232,4.8-7.44c0-0.08,0-0.16,0-0.24s0-0.16,0-0.24
	c-0.158-4.509-3.941-8.037-8.451-7.879c-4.288,0.15-7.729,3.591-7.879,7.879c0,0.08,0,0.16,0,0.24s0,0.16,0,0.24
	c-0.004,3.017,1.658,5.79,4.32,7.21v54.29h-75.42V66.28c2.662-1.42,4.324-4.193,4.32-7.21c0-0.08,0-0.16,0-0.24s0-0.16,0-0.24
	c-0.158-4.509-3.941-8.037-8.451-7.879c-4.288,0.15-7.729,3.591-7.879,7.879c0,0.08,0,0.16,0,0.24s0,0.16,0,0.24
	c-0.002,3.208,1.877,6.119,4.8,7.44v54.06h-22.09c-3.347,0-6.06,2.713-6.06,6.06v54.84c0,3.347,2.713,6.06,6.06,6.06h53.58v10.46
	h-39.76v15.42c-0.335-0.979-0.873-1.875-1.58-2.63l-0.17-0.18c-2.856-2.861-7.491-2.864-10.352-0.008
	c-1.377,1.375-2.15,3.242-2.148,5.188v1c-5.758,0.309-11.386,1.825-16.52,4.45c-7.58,3.75-16.2,10.65-22.26,23.36
	c-3.464,7.532-5.732,15.559-6.72,23.79c-1.211,9.723-1.412,19.545-0.6,29.31c-16.79,13.94,4.24,34.19,4.24,34.19
	c17.23,0,16.84-28.6,16.65-33.48h0.09c0,0,0-0.24-0.12-0.69l0,0l0,0c-1.244-7.99-1.58-16.095-1-24.16
	c0.395-6.353,1.772-12.607,4.08-18.54c1.808-4.623,4.639-8.776,8.28-12.15c3.925-3.483,8.741-5.806,13.91-6.71v4.71
	c-0.007,4.043,3.265,7.326,7.307,7.333c3.139,0.005,5.932-1.991,6.943-4.963v38.44h104.61v-37.6c0.213,1.458,0.861,2.817,1.86,3.9
	l0.2,0.21c2.856,2.861,7.491,2.864,10.352,0.008c1.377-1.375,2.15-3.242,2.148-5.188v-6.74c5.053,0.935,9.755,3.231,13.6,6.64
	c3.641,3.374,6.472,7.527,8.28,12.15c2.316,5.945,3.695,12.212,4.09,18.58c0.58,8.065,0.244,16.17-1,24.16l0,0l0,0
	c-0.07,0.45-0.12,0.69-0.12,0.69h0.09c-0.19,4.88-0.57,33.48,16.65,33.48C914.68,331.94,935.71,311.69,918.92,297.75z"/>
<linearGradient id="SVGID_3_" gradientUnits="userSpaceOnUse" x1="1035.0399" y1="28.95" x2="1035.04" y2="116.84" gradientTransform="matrix(1 0 0 -1 -256 425.77)">
	<stop  offset="0" style="stop-color:#808080;stop-opacity:0.25"/>
	<stop  offset="0.54" style="stop-color:#808080;stop-opacity:0.12"/>
	<stop  offset="1" style="stop-color:#808080;stop-opacity:0.1"/>
</linearGradient>
<polygon fill="url(#SVGID_3_)" points="757.07,309.89 757.07,319.39 769.62,319.39 769.62,334.04 769.62,334.04 769.62,346.59 
	769.62,365.43 769.62,375.89 769.62,382.17 754.97,382.17 754.97,396.82 794.74,396.82 794.74,382.17 788.46,382.17 788.46,375.89 
	788.46,375.89 788.46,365.43 788.46,365.43 788.46,346.59 788.46,346.59 788.46,334.04 788.46,334.04 788.46,319.39 803.11,319.39 
	803.11,309.89 803.11,308.93 757.07,308.93 "/>
<linearGradient id="SVGID_4_" gradientUnits="userSpaceOnUse" x1="1086.3099" y1="28.95" x2="1086.3101" y2="116.84" gradientTransform="matrix(1 0 0 -1 -256 425.77)">
	<stop  offset="0" style="stop-color:#808080;stop-opacity:0.25"/>
	<stop  offset="0.54" style="stop-color:#808080;stop-opacity:0.12"/>
	<stop  offset="1" style="stop-color:#808080;stop-opacity:0.1"/>
</linearGradient>
<polygon fill="url(#SVGID_4_)" points="807.29,309.89 807.29,319.39 826.13,319.39 826.13,334.04 826.13,334.04 826.13,346.59 
	826.13,365.43 826.13,375.89 826.13,382.17 811.48,382.17 811.48,396.82 851.24,396.82 851.24,382.17 844.96,382.17 844.96,375.89 
	844.96,365.43 844.96,346.59 844.96,334.04 844.96,334.04 844.96,319.39 853.33,319.39 853.33,309.89 853.33,308.93 807.29,308.93 
	"/>
<path fill="#6DBD63" d="M748.96,123.35h114.57c7.163,0,12.97,5.807,12.97,12.97v39.22c0,7.163-5.807,12.97-12.97,12.97H748.96
	c-7.163,0-12.97-5.807-12.97-12.97v-39.22C735.99,129.157,741.797,123.35,748.96,123.35z"/>
<rect x="747.19" y="178.51" opacity="0.1" enable-background="new    " width="118.11" height="1.22"/>
<rect x="747.19" y="133.53" opacity="0.3" enable-background="new    " width="118.11" height="44.8"/>
<circle opacity="0.1" enable-background="new    " cx="774.68" cy="156.87" r="16.29"/>
<circle fill="#DEE3F3" cx="774.68" cy="155.93" r="16.29"/>
<circle opacity="0.1" enable-background="new    " cx="837.81" cy="156.87" r="16.29"/>
<circle fill="#DEE3F3" cx="837.81" cy="155.93" r="16.29"/>
<rect x="794.03" y="188.51" fill="#6DBD63" width="24.43" height="14.26"/>
<rect x="755.34" y="198.7" fill="#6DBD63" width="101.82" height="81.45"/>
<polygon fill="#6DBD63" points="852.06,280.15 852.06,288.29 840.86,288.29 840.86,296.44 771.63,296.44 771.63,288.29 
	760.43,288.29 760.43,280.15 "/>
<polygon opacity="0.3" enable-background="new    " points="852.06,280.15 852.06,288.29 840.86,288.29 840.86,296.44 
	771.63,296.44 771.63,288.29 760.43,288.29 760.43,280.15 "/>
<rect x="753.3" y="296.44" fill="#6DBD63" width="105.89" height="10.18"/>
<rect x="758.39" y="306.62" fill="#6DBD63" width="44.8" height="10.18"/>
<rect x="807.27" y="306.62" fill="#6DBD63" width="44.8" height="10.18"/>
<rect x="756.36" y="377.89" fill="#6DBD63" width="38.69" height="14.25"/>
<polygon fill="#6DBD63" points="770.61,331.06 770.61,343.27 770.61,361.6 770.61,371.78 770.61,377.89 788.94,377.89 
	788.94,371.78 788.94,361.6 788.94,343.27 788.94,331.06 788.94,316.8 770.61,316.8 "/>
<polygon fill="#6DBD63" points="825.59,316.8 825.59,331.06 825.59,343.27 825.59,361.6 825.59,371.78 825.59,377.89 843.92,377.89 
	843.92,371.78 843.92,361.6 843.92,343.27 843.92,331.06 843.92,316.8 "/>
<rect x="811.34" y="377.89" fill="#6DBD63" width="38.69" height="14.25"/>
<path fill="#6DBD63" d="M755.73,216v24.43c0,0.18,0,0.37,0,0.55c-0.357,3.922-3.826,6.811-7.747,6.454
	c-3.635-0.331-6.434-3.354-6.483-7.004V216c0.016-3.932,3.217-7.107,7.149-7.091c1.881,0.008,3.682,0.759,5.011,2.091l0.17,0.17
	c1.107,1.181,1.778,2.705,1.9,4.32C755.72,215.63,755.73,215.82,755.73,216z"/>
<path fill="#6DBD63" d="M871.34,218.03v24.44c-0.016,3.932-3.217,7.107-7.149,7.091c-1.881-0.008-3.682-0.759-5.011-2.091l-0.2-0.21
	c-1.216-1.315-1.891-3.039-1.89-4.83v-24.4c0.147-3.935,3.457-7.005,7.392-6.858C868.21,211.312,871.2,214.302,871.34,218.03z"/>
<path fill="#6DBD63" d="M741.47,217.02v18.83c-5.031,0.879-9.719,3.14-13.54,6.53c-3.544,3.281-6.3,7.322-8.06,11.82
	c-2.253,5.758-3.602,11.83-4,18c-0.575,8.083-0.196,16.206,1.13,24.2h-20.33c-0.85-9.728-0.672-19.519,0.53-29.21
	c0.962-8.01,3.169-15.821,6.54-23.15c5.9-12.37,14.29-19.09,21.66-22.73C730.397,218.77,735.872,217.308,741.47,217.02z"/>
<path fill="#6DBD63" d="M700.74,329.02c0,0-20.46-19.7-4.12-33.27h20.29C716.91,295.75,719.07,329.02,700.74,329.02z"/>
<path opacity="0.3" enable-background="new    " d="M700.74,329.02c0,0-20.46-19.7-4.12-33.27h20.29
	C716.91,295.75,719.07,329.02,700.74,329.02z"/>
<rect x="771.63" y="210.91" opacity="0.3" enable-background="new    " width="69.23" height="52.94"/>
<rect x="770.61" y="316.8" opacity="0.3" enable-background="new    " width="18.33" height="14.25"/>
<rect x="770.61" y="343.27" opacity="0.3" enable-background="new    " width="18.33" height="18.33"/>
<rect x="770.61" y="371.78" opacity="0.3" enable-background="new    " width="18.33" height="6.11"/>
<rect x="825.59" y="316.8" opacity="0.3" enable-background="new    " width="18.33" height="14.25"/>
<rect x="825.59" y="343.27" opacity="0.3" enable-background="new    " width="18.33" height="18.33"/>
<rect x="825.59" y="371.78" opacity="0.3" enable-background="new    " width="18.33" height="6.11"/>
<path opacity="0.3" enable-background="new    " d="M741.47,217.02v18.83c-5.031,0.879-9.719,3.14-13.54,6.53l-2.53-21
	C730.392,218.815,735.867,217.33,741.47,217.02z"/>
<path opacity="0.3" enable-background="new    " d="M719.88,254.2c-2.253,5.758-3.602,11.83-4,18l-18.7-5
	c0.962-8.01,3.169-15.821,6.54-23.15L719.88,254.2z"/>
<path fill="#6DBD63" d="M871.02,217.02v18.83c5.031,0.879,9.719,3.14,13.54,6.53c3.544,3.281,6.3,7.322,8.06,11.82
	c2.253,5.758,3.602,11.83,4,18c0.575,8.083,0.196,16.206-1.13,24.2h20.36c0.854-9.714,0.683-19.491-0.51-29.17
	c-0.962-8.01-3.169-15.821-6.54-23.15c-5.9-12.37-14.29-19.09-21.66-22.73C882.131,218.789,876.638,217.314,871.02,217.02z"/>
<path fill="#6DBD63" d="M911.75,329.02c0,0,20.46-19.7,4.12-33.27h-20.29C895.58,295.75,893.42,329.02,911.75,329.02z"/>
<path opacity="0.3" enable-background="new    " d="M911.75,329.02c0,0,20.46-19.7,4.12-33.27h-20.29
	C895.58,295.75,893.42,329.02,911.75,329.02z"/>
<path opacity="0.3" enable-background="new    " d="M871.02,217.02v18.83c5.031,0.879,9.719,3.14,13.54,6.53l2.53-21
	C882.099,218.815,876.623,217.33,871.02,217.02z"/>
<path opacity="0.3" enable-background="new    " d="M892.62,254.2c2.253,5.758,3.602,11.83,4,18l18.7-5
	c-0.962-8.01-3.169-15.821-6.54-23.15L892.62,254.2z"/>
<rect x="794.03" y="188.51" opacity="0.1" enable-background="new    " width="24.43" height="1.69"/>
<path opacity="0.1" enable-background="new    " d="M858.96,213.21v34.1c-1.216-1.315-1.891-3.039-1.89-4.83v-24.45
	C857.07,216.243,857.745,214.521,858.96,213.21z"/>
<path opacity="0.1" enable-background="new    " d="M755.7,215.45v25.53c-0.122,1.615-0.793,3.139-1.9,4.32v-34.17
	C754.907,212.311,755.578,213.835,755.7,215.45z"/>
<rect x="760.43" y="280.15" opacity="0.1" enable-background="new    " width="91.63" height="1.21"/>
<rect x="758.39" y="306.62" opacity="0.1" enable-background="new    " width="44.8" height="0.93"/>
<rect x="807.27" y="306.62" opacity="0.1" enable-background="new    " width="44.8" height="0.93"/>
<rect x="763.39" y="63.05" fill="#6DBD63" width="7.01" height="60.3"/>
<rect x="843.79" y="63.05" fill="#6DBD63" width="7.01" height="60.3"/>
<circle opacity="0.1" enable-background="new    " cx="766.66" cy="63.52" r="7.95"/>
<circle fill="#6DBD63" cx="766.66" cy="63.05" r="7.95"/>
<circle opacity="0.1" enable-background="new    " cx="847.53" cy="63.52" r="7.95"/>
<circle fill="#6DBD63" cx="847.53" cy="63.05" r="7.95"/>
<path fill="none" stroke="#FC6681" stroke-width="2" stroke-miterlimit="10" d="M598.9,247.78c0,0,23.26,45.65,4.31,70.63
	s1.72,93,1.72,93"/>
<path fill="#FC6681" d="M605.79,233.57c0,8.8-6.46,15.93-6.46,15.93s-6.46-7.13-6.46-15.93s6.47-15.94,6.47-15.94
	S605.79,224.77,605.79,233.57z"/>
<path fill="none" stroke="#FFD037" stroke-width="2" stroke-miterlimit="10" d="M610.96,247.78c0,0-23.26,45.65-4.31,70.63
	s-1.72,93-1.72,93"/>
<path fill="#FFD037" d="M604.07,233.57c0,8.8,6.46,15.93,6.46,15.93s6.46-7.13,6.46-15.93s-6.46-15.94-6.46-15.94
	S604.07,224.77,604.07,233.57z"/>
<path fill="none" stroke="#FC6681" stroke-width="2" stroke-miterlimit="10" d="M620.43,247.78c0,0,23.26,45.65,4.31,70.63
	s1.72,93,1.72,93"/>
<path fill="#FC6681" d="M627.34,233.57c0,8.8-6.46,15.93-6.46,15.93s-6.46-7.13-6.46-15.93s6.44-15.94,6.44-15.94
	S627.34,224.77,627.34,233.57z"/>
<path fill="#FC6681" d="M623.7,270.15c-6.1,6.34-15.7,7-15.7,7s0.29-9.62,6.39-16s15.7-7,15.7-7S629.8,263.8,623.7,270.15z"/>
<path fill="#FC6681" d="M624.34,301.63c-6.1,6.34-15.7,7-15.7,7s0.29-9.62,6.39-16s15.7-7,15.7-7S630.41,295.3,624.34,301.63z"/>
<path fill="#FC6681" d="M591.22,318.97c5.77,6.65,5.57,16.27,5.57,16.27s-9.55-1.15-15.32-7.8s-5.57-16.27-5.57-16.27
	S585.45,312.32,591.22,318.97z"/>
<path fill="#FC6681" d="M596.57,251.81c7.34,4.86,9.71,14.19,9.71,14.19s-9.52,1.44-16.85-3.42s-9.71-14.19-9.71-14.19
	S589.24,246.94,596.57,251.81z"/>
<path fill="none" stroke="#FFD037" stroke-width="2" stroke-miterlimit="10" d="M632.49,247.78c0,0-23.26,45.65-4.31,70.63
	s-1.72,93-1.72,93"/>
<path fill="#FFD037" d="M625.6,233.57c0,8.8,6.46,15.93,6.46,15.93s6.46-7.13,6.46-15.93s-6.46-15.94-6.46-15.94
	S625.6,224.77,625.6,233.57z"/>
<path fill="#FFD037" d="M627.46,270.82c-6.18,6.27-6.58,15.88-6.58,15.88s9.61-0.55,15.79-6.82s6.58-15.88,6.58-15.88
	S633.63,264.56,627.46,270.82z"/>
<path fill="#FFD037" d="M639.57,314.43c-6.18,6.27-6.58,15.88-6.58,15.88s9.61-0.55,15.79-6.82s6.56-15.86,6.56-15.86
	S645.75,308.16,639.57,314.43z"/>
<path fill="none" stroke="#FFD037" stroke-width="2" stroke-miterlimit="10" d="M621.75,304.84c0,0,14-22.07,33.65-22.54"/>
<path fill="none" stroke="#FC6681" stroke-width="2" stroke-miterlimit="10" d="M610.85,291.52c0,0-14-22.07-33.65-22.54"/>
<path fill="none" stroke="#FFD037" stroke-width="2" stroke-miterlimit="10" d="M609.03,323.01c0,0,14-22.07,33.65-22.54"/>
<circle fill="#FFD037" cx="654.75" cy="282.14" r="3.63"/>
<circle fill="#FC6681" cx="577.54" cy="269.12" r="3.63"/>
<path fill="none" stroke="#FC6681" stroke-width="2" stroke-miterlimit="10" d="M619.34,330.28c0,0-14-22.07-33.65-22.54"/>
<circle fill="#FC6681" cx="586.02" cy="307.88" r="3.63"/>
<circle fill="#FFD037" cx="642.94" cy="300.61" r="3.63"/>
<path fill="#A8A8A8" d="M696.7,384.92c0,0-33.73-6.75-42.73-15.74s-49.48-24.74-54-13.49s-60.72,49.48-22.49,56.22s90,9,101.2,4.5
	S696.7,384.92,696.7,384.92z"/>
<path opacity="0.2" enable-background="new    " d="M577.51,407.73c38.23,6.75,90,9,101.2,4.5c8.56-3.43,14.51-19.88,16.87-27.54
	l1.12,0.23c0,0-6.75,27-18,31.48s-63,2.25-101.2-4.5c-11-1.95-14.19-6.52-13-12.31C565.45,403.38,569.34,406.28,577.51,407.73z"/>
<path fill="#FC6681" d="M1061.05,255.84c0,0,8.08,10.57-3.73,26.53s-21.55,29.43-17.62,39.38c0,0,17.82-29.64,32.33-30.05
	S1077.01,273.63,1061.05,255.84z"/>
<path opacity="0.1" enable-background="new    " d="M1061.05,255.84c0.704,1.02,1.259,2.134,1.65,3.31
	c14.15,16.63,21.7,32.15,8.09,32.54c-12.67,0.36-27.88,23-31.52,28.75c0.119,0.441,0.263,0.875,0.43,1.3
	c0,0,17.82-29.64,32.33-30.05S1077.01,273.63,1061.05,255.84z"/>
<path fill="#FFD037" d="M1076.07,269.31c0,3.72-0.42,6.74-0.93,6.74s-0.93-3-0.93-6.74s0.52-2,1-2S1076.07,265.63,1076.07,269.31z"
	/>
<path fill="#FFD037" d="M1081.23,273.75c-3.27,1.78-6.11,2.86-6.36,2.4s2.2-2.26,5.47-4s2-0.48,2.22,0S1084.5,271.97,1081.23,273.75
	z"/>
<path fill="#FC6681" d="M1018.34,255.84c0,0-8.08,10.57,3.73,26.53c11.81,15.96,21.55,29.43,17.62,39.38
	c0,0-17.82-29.64-32.33-30.05S1002.4,273.63,1018.34,255.84z"/>
<path opacity="0.1" enable-background="new    " d="M1018.34,255.84c-0.704,1.02-1.259,2.134-1.65,3.31
	c-14.15,16.63-21.7,32.15-8.09,32.54c12.67,0.36,27.88,23,31.52,28.75c-0.119,0.441-0.263,0.875-0.43,1.3
	c0,0-17.82-29.64-32.33-30.05S1002.4,273.63,1018.34,255.84z"/>
<path fill="#FFD037" d="M1003.34,269.31c0,3.72,0.42,6.74,0.93,6.74s0.93-3,0.93-6.74s-0.52-2-1-2S1003.34,265.63,1003.34,269.31z"
	/>
<path fill="#FFD037" d="M998.17,273.75c3.27,1.78,6.11,2.86,6.36,2.4s-2.2-2.26-5.47-4s-2-0.48-2.22,0S994.91,271.97,998.17,273.75z
	"/>
<path fill="#A8A8A8" d="M1005.9,320.37c0,0,22.6-0.7,29.41-5.55s34.76-10.64,36.45-2.86s34,38.68,8.45,38.89s-59.28-4-66.08-8.11
	S1005.9,320.37,1005.9,320.37z"/>
<path opacity="0.2" enable-background="new    " d="M1080.67,348.14c-25.51,0.21-59.28-4-66.08-8.11
	c-5.18-3.15-7.24-14.47-7.93-19.69h-0.75c0,0,1.43,18.23,8.23,22.37s40.57,8.32,66.08,8.11c7.36-0.06,9.91-2.68,9.77-6.56
	C1088.96,346.63,1086.15,348.1,1080.67,348.14z"/>
<rect x="834.009" y="105.442" transform="matrix(-0.9545 0.2982 -0.2982 -0.9545 1735.1738 -44.8604)" fill="#6DBD63" width="74" height="9"/>
<path fill="#A8A8A8" d="M936.43,428.94c0,0-38.72-7.74-49.05-18.07s-56.79-28.4-62-15.49s-69.7,56.79-25.82,64.54
	s103.26,10.33,116.17,5.16S936.43,428.94,936.43,428.94z"/>
<path opacity="0.2" enable-background="new    " d="M799.6,455.12c43.89,7.74,103.26,10.33,116.17,5.16
	c9.83-3.93,16.66-22.82,19.36-31.62l1.29,0.27c0,0-7.74,31-20.65,36.14s-72.28,2.58-116.17-5.16c-12.67-2.24-16.29-7.49-14.93-14.13
	C785.76,450.12,790.17,453.46,799.6,455.12z"/>
<linearGradient id="SVGID_5_" gradientUnits="userSpaceOnUse" x1="1225.1344" y1="-130.4401" x2="1225.1344" y2="288.6467" gradientTransform="matrix(1 0 0 -1 -293.66 360.4)">
	<stop  offset="0" style="stop-color:#808080;stop-opacity:0.25"/>
	<stop  offset="0.54" style="stop-color:#808080;stop-opacity:0.12"/>
	<stop  offset="1" style="stop-color:#808080;stop-opacity:0.1"/>
</linearGradient>
<path fill="url(#SVGID_5_)" d="M1022.42,91.33c-0.69-1.718-1.788-3.242-3.2-4.44c-10.39-9.47-27.2-6.6-40.1-12.38
	c-3-1.33-6-3.18-9.25-2.67c-4.51,0.71-8.7,5.84-12.63,3.56l0.28,0.86l-0.28-0.15l2.89,8.8c1.11,3.38,2.28,6.86,4.44,9.67
	c-10.538,9.192-11.629,25.187-2.437,35.725c2.366,2.712,5.283,4.889,8.557,6.385l0.4,0.89l0.37,0.16
	c0.857,1.968,1.498,4.023,1.91,6.13c-3.34,0.46-9.17,4.16-14.91,9.62l-11.47-0.39c-7.408-0.246-14.576-2.682-20.6-7l-34.29-24.65
	c-2.444,0.239-4.747,1.256-6.57,2.9c-4.26-4.44-7.87-9.07-7.56-11.79c0,0-15.95-29.84-21.74-14.92s10.87,30.56,10.87,30.56
	l10.58,13.7c-0.417,2.401-0.68,4.826-0.79,7.26c13,14.92,58.71,28.42,58.71,28.42l7.12,0.34v0.35c-0.438,1.868-0.653,3.781-0.64,5.7
	c0,0.28,0,0.56,0,0.85s0,0.38,0,0.57c0.36,23.8,3.62,96.64,3.62,96.64c0.63-0.28,1.29-0.54,2-0.79l-0.51,6.47
	c0,0-30.44,4.26-52.91,12.79s-23.19,18.48-23.19,18.48v87.78c-6.42,3.29-16.55,7.62-21.74,5.31c-5.64-2.51-8.74-0.4-9.3,1.8l0,0
	c-0.107,0.437-0.107,0.893,0,1.33l0,0c0.049,0.195,0.123,0.383,0.22,0.56l0,0c0.103,0.184,0.231,0.352,0.38,0.5
	c2.17,2.13,49.29,20.61,60.16,17.76c0.341-0.086,0.675-0.197,1-0.33l0.3-0.15c0.2-0.09,0.4-0.19,0.59-0.3s0.21-0.15,0.32-0.22
	s0.33-0.21,0.48-0.34s0.2-0.18,0.3-0.27s0.28-0.25,0.41-0.38s0.18-0.21,0.27-0.31s0.25-0.28,0.36-0.43s0.16-0.23,0.23-0.34
	s0.22-0.32,0.32-0.49s0.13-0.24,0.2-0.36s0.2-0.36,0.28-0.54s0.11-0.25,0.16-0.37s0.17-0.4,0.25-0.6l0.13-0.37
	c0.08-0.22,0.15-0.44,0.22-0.66l0.1-0.35c0.07-0.24,0.13-0.48,0.19-0.73l0.07-0.33c0.06-0.26,0.11-0.53,0.16-0.79v-0.3
	c0-0.29,0.09-0.57,0.13-0.86v-0.25c0-0.31,0.07-0.62,0.09-0.94v-0.2c0-0.34,0.02-0.673,0.06-1v-0.14c0-0.36,0-0.723,0-1.09v-0.07
	c-0.017-4.238-0.486-8.462-1.4-12.6l0,0l2.63-74.78c14.276,0.249,28.556-0.251,42.78-1.5l1.56,35.68c0,0,0,23.45,8,34.11
	c6.82,9.12,14.71,49.46,16.84,60.91c-2.93,5.59-8.53,12.49-18.29,12.28c0,0-18.36-1.59-17.32,3.46l0,0
	c0.03,0.133,0.07,0.263,0.12,0.39l0,0c0.057,0.144,0.124,0.284,0.2,0.42l0,0c0.07,0.13,0.16,0.26,0.25,0.4l0.06,0.08
	c0.11,0.15,0.22,0.3,0.36,0.46l0,0l0.4,0.44l0.12,0.12c0.16,0.16,0.34,0.33,0.53,0.51c9.42,8.53,64.51,9.95,64.51,9.95v-0.19
	c0-0.05,0-0.12,0-0.2l0,0c0-2.47-0.36-15.42-3.66-25.16h0.76c0,0-8-71.77-14.5-80.3c0,0-1.73-37.84,2.18-61.56l0.72-0.26
	c18.27-6.82,19.57-23.63,17.69-36c3.46,1.11,5.51,1.87,5.51,1.87s-0.06-0.54-0.18-1.49l0.18,0.07c0,0-0.35-2.26-0.92-5.78
	c-1.31-9.68-3.84-26.6-6.54-34.59c-0.44-1.76-0.85-3.26-1.24-4.4c-1.556-4.8-2.625-9.745-3.19-14.76
	c-0.739-6.497-1.113-13.031-1.12-19.57c0.059-8.739,0.727-17.464,2-26.11c1.11-7.55,2.1-16.14,2-22.14
	c0.075-2.09-0.073-4.181-0.44-6.24c-1-4.43-5.24-7.31-9.68-9.14c-0.29-0.12-0.58-0.21-0.87-0.32c0.11-1.68,0.25-3.58,0.43-5.59
	c1.075,0.745,2.409,1.017,3.69,0.75c1.91-0.42,3.28-2,4.5-3.51c6.42-7.89,13-16.11,15.49-25.91c0.986-4.376,1.443-8.855,1.36-13.34
	c0-0.247,0-0.493,0-0.74C1023.054,94.578,1022.875,92.921,1022.42,91.33z"/>
<path fill="#F7C4A7" d="M963.93,129.79c0,0,9.73,14.6,7.65,21.55c-2.08,6.95,22.94,2.78,22.94,2.78s0.7-27.11,5.56-33.37
	S963.93,129.79,963.93,129.79z"/>
<path fill="#F7C4A7" d="M899.63,139.18c0,0-20.16-16.68-19.47-22.94c0,0-15.29-29.2-20.86-14.6s10.44,29.89,10.44,29.89l19.47,25.72
	L899.63,139.18z"/>
<path fill="#535461" d="M879.12,400.91c0,0-18.78,11.82-26.41,8.35s-10.43,2.09-8.34,4.17s47.27,20.16,57.7,17.38
	s5.12-25.55,5.12-25.55L879.12,400.91z"/>
<path fill="#535461" d="M978.53,451.63c0,0-4.52,19.12-20.16,18.77c0,0-23.64-2.09-14.6,6.26s61.87,9.73,61.87,9.73
	s0-28.5-9.73-34.76S978.53,451.63,978.53,451.63z"/>
<path fill="#575988" d="M950.03,316.8l2.09,48.66c0,0,0,22.94,7.65,33.37s16.68,62.57,16.68,62.57h26.42c0,0-7.65-70.21-13.9-78.56
	c0,0-2.78-61.87,7-75.77L950.03,316.8z"/>
<path opacity="0.1" enable-background="new    " d="M950.03,316.8l2.09,48.66c0,0,0,22.94,7.65,33.37s16.68,62.57,16.68,62.57h26.42
	c0,0-7.65-70.21-13.9-78.56c0,0-2.78-61.87,7-75.77L950.03,316.8z"/>
<path fill="#575988" d="M1004.95,273c0,0,16,38.23-13.21,49.36s-82,9.73-82,9.73l-2.78,80.64c0,0-32.67,4.17-33.37-6.26v-88.28
	c0,0,0.7-9.73,22.25-18.07s50.71-12.49,50.71-12.49l1.39-18.07L1004.95,273z"/>
<path opacity="0.1" enable-background="new    " d="M979.34,147.05c5.551-0.613,11.167,0.182,16.33,2.31
	c4.26,1.79,8.36,4.61,9.29,8.94c1.1,5.13-0.12,16.64-1.52,26.37c-2.24,15.265-2.525,30.753-0.85,46.09c0.72,6.39,1.71,12,3.06,14.44
	c4.17,7.65,8.34,43.8,8.34,43.8s-45.88-17.38-68.82-7c0,0-3.13-71.26-3.48-94.54c-0.27-18,22.59-38.58,30.24-39.28
	C976.41,147.81,974.88,147.51,979.34,147.05z"/>
<path fill="#E14B5A" d="M979.34,145.63c5.551-0.613,11.167,0.182,16.33,2.31c4.26,1.79,8.36,4.61,9.29,8.94
	c1.1,5.13-0.12,16.64-1.52,26.37c-2.24,15.265-2.525,30.753-0.85,46.09c0.541,4.902,1.566,9.739,3.06,14.44
	c3.13,9.38,8.34,43.8,8.34,43.8s-45.88-17.38-68.82-7c0,0-3.13-71.26-3.48-94.54c-0.27-18,22.59-38.58,30.24-39.28
	C976.41,146.42,974.88,146.12,979.34,145.63z"/>
<path opacity="0.1" enable-background="new    " d="M991.74,184.02l-49.4-2.78c0,0-3.14-24.2,4-23.95l48.85,1.7
	C995.19,158.99,1005.65,171.5,991.74,184.02z"/>
<path fill="#E14B5A" d="M991.74,182.63l-56.31-2.78c0,0-43.79-13.22-56.31-27.81c0,0,0.7-25.72,14.6-27.11l32.89,24.12
	c5.741,4.209,12.615,6.596,19.73,6.85l48.85,1.7C995.19,157.6,1005.65,170.11,991.74,182.63z"/>
<path opacity="0.1" enable-background="new    " d="M994.17,132.92c0.83-6.59,3.82-8.78,5.91-11.47c4.87-6.26-36.15,9-36.15,9
	c2.113,3.259,3.966,6.679,5.54,10.23c3.274,1.506,6.836,2.284,10.44,2.28C985.97,143,989.85,136.49,994.17,132.92z"/>
<circle fill="#F7C4A7" cx="979.92" cy="117.28" r="25.03"/>
<path opacity="0.1" enable-background="new    " d="M964.12,99.74c-2.67-2.91-3.95-6.79-5.16-10.55l-2.77-8.61
	c3.77,2.23,7.79-2.79,12.11-3.48c3.1-0.5,6,1.31,8.87,2.62c12.37,5.66,28.49,2.85,38.46,12.12c1.359,1.177,2.413,2.666,3.07,4.34
	c0.464,1.59,0.654,3.247,0.56,4.9c0.081,4.386-0.355,8.766-1.3,13.05c-2.37,9.59-8.69,17.63-14.85,25.35
	c-1.17,1.47-2.48,3-4.32,3.43c-3.58,0.8-6.35-3.07-7.73-6.46c-1.825-4.512-3.166-9.205-4-14c-0.245-2.022-0.826-3.989-1.72-5.82
	c-2.15-3.82-7.46-7.43-10.69-10.39S967.08,102.98,964.12,99.74z"/>
<path fill="#632652" d="M964.12,99.04c-2.67-2.91-3.95-6.79-5.16-10.55l-2.77-8.61c3.77,2.23,7.79-2.79,12.11-3.48
	c3.1-0.5,6,1.31,8.87,2.62c12.37,5.66,28.49,2.85,38.46,12.12c1.359,1.177,2.413,2.666,3.07,4.34c0.464,1.59,0.654,3.247,0.56,4.9
	c0.081,4.386-0.355,8.766-1.3,13.05c-2.37,9.59-8.69,17.63-14.85,25.35c-1.17,1.47-2.48,3-4.32,3.43c-3.58,0.8-6.35-3.07-7.73-6.46
	c-1.825-4.512-3.166-9.205-4-14c-0.214-2.045-0.772-4.04-1.65-5.9c-2.15-3.82-7.46-7.43-10.69-10.39S967.08,102.28,964.12,99.04z"/>
<ellipse fill="#F7C4A7" cx="986.53" cy="120.07" rx="2.09" ry="4.52"/>
<path opacity="0.1" enable-background="new    " d="M999.04,240.63c0,0-1.39,4.17-8.34,3.48s-27.11-2.09-27.11,0"/>
<path opacity="0.5" fill="#FFFFFF" enable-background="new    " d="M943.77,475.99c-0.947-0.74-1.645-1.752-2-2.9
	c-0.18,0.9,0.38,2.08,2,3.6c9,8.34,61.87,9.73,61.87,9.73s0-0.25,0-0.7C1005.34,485.72,952.78,484.31,943.77,475.99z"/>
<path opacity="0.5" fill="#FFFFFF" enable-background="new    " d="M902.06,429.42c-10.43,2.78-55.61-15.29-57.7-17.38
	c-0.277-0.277-0.477-0.622-0.58-1c-0.247,0.849-0.026,1.766,0.58,2.41c2.09,2.09,47.27,20.16,57.7,17.38
	c5.37-1.43,6.56-8.16,6.46-14.35C908.43,422.23,907.03,428.09,902.06,429.42z"/>
<path fill="none" stroke="#535461" stroke-width="3" stroke-miterlimit="10" d="M735.05,146.85c0,0-60.54-17.93-64.54,33.07
	s16,135,0,162s-73.09,66-43,69.5s45,8.5,36,26.5c-9,18-56,35-46,48s15,29,5,45s-45,26-39,37s28,17,17,29s-42.89,39.3-30.44,39.15"/>
<linearGradient id="SVGID_6_" gradientUnits="userSpaceOnUse" x1="611.6567" y1="-265.89" x2="611.6567" y2="126.77" gradientTransform="matrix(1 0 0 -1 -293.66 360.4)">
	<stop  offset="0" style="stop-color:#808080;stop-opacity:0.25"/>
	<stop  offset="0.54" style="stop-color:#808080;stop-opacity:0.12"/>
	<stop  offset="1" style="stop-color:#808080;stop-opacity:0.1"/>
</linearGradient>
<path fill="url(#SVGID_6_)" d="M505.5,482.7c-2.437-13.547-3.934-27.246-4.48-41l0,0c-0.959-23.252-16.45-43.384-38.68-50.27
	c-3.95-1.21-8.3-2.35-13.11-3.37c-42.13-8.95-54.93-1.14-56.38-0.11c-1.228-2.255-2.294-4.594-3.19-7
	c-0.07-0.24-0.14-0.49-0.21-0.74c8.337-8.891,13.416-20.343,14.41-32.49c7-7.13,11.13-15.72,11.13-25c0-8-3-15.43-8.36-21.9v-12.51
	c-0.017-30.204-24.506-54.68-54.71-54.68h-4.44c-30.215,0-54.71,24.495-54.71,54.71v13.56c-4.79,5.923-7.452,13.283-7.56,20.9
	c0,9.06,3.94,17.49,10.7,24.53c0.919,12.594,6.227,24.467,15,33.55c0.3,2.05,0.6,4.27,0.9,6.6l-75.37,15.94
	c0,0-29.06,1.19-47.77,39.81c-15.82,32.65-47.33,116.69-56.65,141.7l0,0c-1.69,4.53-2.64,7.13-2.64,7.13s0.31-0.31,0.9-0.84
	l-0.94,2.41c0,0,0.46-0.46,1.33-1.22c-1.32,10.47-1.51,28.44,12.21,30.68c11.5,1.88,41.11,2.65,63.49,3l0,0h1.55
	c14.83,0.2,26.11,0.2,26.11,0.2v-0.2H474.7v-2.46c0.002-2.241-0.451-4.459-1.33-6.52l0.34-0.4c1.289,1.7,2.146,3.686,2.5,5.79
	c-0.026,0.205-0.062,0.409-0.11,0.61l0.14-0.37c0.062,0.67,0.015,1.345-0.14,2c0,0,30.87-79.55,30.54-127
	C506.732,492.702,506.35,487.667,505.5,482.7z M313.06,398.18c-0.396-2.269-0.65-4.56-0.76-6.86v-0.06
	C312.56,393.49,312.82,395.81,313.06,398.18z M219.53,569.05v19l-11.88,2.54L219.53,569.05z"/>
<path fill="#E14B5A" d="M348.47,241.26L348.47,241.26c30.215,0.006,54.706,24.504,54.7,54.72c0,0.007,0,0.013,0,0.02v23.3l0,0
	H293.76l0,0V296c0-30.215,24.495-54.71,54.71-54.71V241.26z"/>
<ellipse fill="#E14B5A" cx="348.85" cy="326.96" rx="62.36" ry="42.85"/>
<path fill="#F7C4A7" d="M308.87,368.46c0,0,13,68.09,0,86.46s39.79,25.63,39.79,25.63l54.68-19.92l7.65-49
	c0,0-33.28-18.75-26.4-56.62L308.87,368.46z"/>
<path fill="#F7C4A7" d="M470.34,597.99c0,0,3.44,14.92-15.3,17.6c-11.071,1.628-22.331,1.493-33.36-0.4l-4.13-37.48h43.61
	L470.34,597.99z"/>
<path fill="#F7C4A7" d="M139.26,578.89c0,0-8.28,33.64,10.47,36.74s87.61,3,87.61,3v-39.77l-31.17,6.66l-29.27-28.08L139.26,578.89z
	"/>
<path opacity="0.1" enable-background="new    " d="M312.89,390.46l-73.26,15.49c0,0-27.93,1.15-45.91,38.26s-57,143.08-57,143.08
	s33.28-33.66,72.3,2.3l26-47.05l-5.68,74.58h201.57v-35.2c0,0,42.08,22.57,39,35.2c0,0,36-92.78,28.26-134.95
	c-2.343-13.035-3.779-26.216-4.3-39.45l0,0c-0.944-22.333-15.835-41.657-37.19-48.26c-3.8-1.17-8-2.26-12.6-3.24
	c-43.23-9.18-54.32,0-54.32,0s-8.37,27.25-8.22,39.59c0.19,15.88-22.57,26.4-22.57,26.4s-33.66-8-35.2-14.54
	S310.21,398.11,312.89,390.46z"/>
<path fill="#575988" d="M312.89,388.93l-73.26,15.49c0,0-27.93,1.15-45.91,38.26s-57,143.08-57,143.08s33.28-33.66,72.3,2.3
	l26-47.05l-5.68,74.62h201.57v-35.2c0,0,42.08,22.57,39,35.2c0,0,36-92.78,28.26-134.95c-2.343-13.035-3.779-26.216-4.3-39.45l0,0
	c-0.944-22.333-15.835-41.657-37.19-48.26c-3.8-1.17-8-2.26-12.6-3.24c-43.23-9.18-54.32,0-54.32,0s-8.37,27.25-8.22,39.59
	c0.19,15.88-22.57,26.4-22.57,26.4s-33.66-8-35.2-14.54S310.21,396.58,312.89,388.93z"/>
<path opacity="0.1" enable-background="new    " d="M387.76,385.63c-3.078-8.713-3.769-18.09-2-27.16l-75.75,13.39
	c0,0,1.09,5.72,2.33,14.3c19.922,20.685,52.841,21.303,73.526,1.381c0.644-0.621,1.272-1.258,1.884-1.911H387.76z"/>
<path fill="#F7C4A7" d="M400.69,346.63c0.348,28.719-22.651,52.282-51.37,52.63s-52.282-22.651-52.63-51.37c0-0.42,0-0.84,0-1.26
	c-0.011-19.878,11.31-38.023,29.17-46.75c1.56-0.76,3.163-1.447,4.81-2.06c8.564-3.149,17.802-4.008,26.8-2.49l0,0
	c23.723,4.044,41.572,23.837,43.15,47.85C400.667,344.34,400.69,345.49,400.69,346.63z"/>
<g opacity="0.1">
	<path d="M330.53,299.06h0.07c-1.647,0.607-3.25,1.293-4.81,2.06c-17.86,8.727-29.181,26.872-29.17,46.75c0,0.42,0,0.84,0,1.26
		c1.618-0.042,3.209-0.424,4.67-1.12c12.69-5.92,20.29-24,23.28-36.66C325.67,306.78,326.69,301.69,330.53,299.06z"/>
	<path d="M370.34,300.53c-4.116-1.895-8.463-3.24-12.93-4c3.665,0.841,6.939,2.896,9.29,5.83c1.15,1.568,2.104,3.27,2.84,5.07
		c-14.015-6.126-30.012-5.793-43.76,0.91c3.27,7.16,13.39,11.06,20.15,13.68c7.4,2.86,14.89,5.473,22.47,7.84l-6.69-5.43l15.11,2.4
		c0.165-3.008-0.19-6.023-1.05-8.91c2.88,2.33,6.73,3.11,9.87,5.1c5.89,3.71,8.34,10.87,11.55,17c0.741,1.701,1.9,3.187,3.37,4.32
		C399.289,325.298,387.69,308.481,370.34,300.53z"/>
</g>
<path fill="#632652" d="M330.53,297.89h0.07c-1.647,0.607-3.25,1.293-4.81,2.06c-17.833,8.719-29.146,26.83-29.16,46.68
	c0,0.42,0,0.84,0,1.26c1.618-0.042,3.209-0.424,4.67-1.12c12.69-5.92,20.29-24,23.28-36.66
	C325.67,305.63,326.69,300.51,330.53,297.89z"/>
<path fill="#632652" d="M370.34,299.35c-4.116-1.895-8.463-3.24-12.93-4c3.665,0.841,6.939,2.896,9.29,5.83
	c1.15,1.568,2.104,3.27,2.84,5.07c-14.015-6.126-30.012-5.793-43.76,0.91c3.27,7.16,13.39,11.06,20.15,13.68
	c7.4,2.86,14.89,5.473,22.47,7.84l-6.69-5.43l15.11,2.4c0.165-3.008-0.19-6.023-1.05-8.91c2.88,2.33,6.73,3.11,9.87,5.1
	c5.89,3.71,8.34,10.87,11.55,17c0.741,1.701,1.9,3.187,3.37,4.32C399.289,324.118,387.69,307.301,370.34,299.35z"/>
<path opacity="0.1" enable-background="new    " d="M290.7,338.07c0,0,53.56-66.56,115.53,0l-5.36-14.92
	c0,0-29.07-42.46-49.73-33.28s-40.93,15.68-40.93,15.68L290.7,338.07z"/>
<path fill="#E14B5A" d="M290.7,336.9c0,0,53.56-66.56,115.53,0l-5.36-14.92c0,0-29.07-42.46-49.73-33.28s-40.93,15.68-40.93,15.68
	L290.7,336.9z"/>
<path opacity="0.1" enable-background="new    " d="M246.71,480.36c0,0-11.48,30.6,4.59,58.15s-14.15,39-14.15,39"/>
<path opacity="0.1" enable-background="new    " d="M432.63,452.81c0,0,19.89,25.25,6.89,47.82s-12.24,76.89-12.24,76.89"/>
<path fill="#535461" d="M229.11,600.1h221.12c10.14,0,18.36,8.22,18.36,18.36l0,0l0,0H210.75l0,0l0,0
	C210.75,608.32,218.97,600.1,229.11,600.1z"/>
<path fill="#535461" d="M262.37,473.86H417c21.539,0,39,17.461,39,39v91.45l0,0H223.37l0,0v-91.45
	C223.37,491.321,240.831,473.86,262.37,473.86z"/>
<circle fill="#FFFFFF" cx="339.48" cy="544.82" r="13.77"/>
<path opacity="0.1" fill="none" stroke="#000000" stroke-miterlimit="10" enable-background="new    " d="M293.76,306.86
	c0,0,52.64-52.61,109.41-1"/>
<rect x="411.19" y="303.52" fill="#6A5C99" width="5.29" height="29.96"/>
<path fill="#FFD037" d="M404.14,322.9L404.14,322.9c10.057,0,18.21,8.153,18.21,18.21v1.17c0,10.057-8.153,18.21-18.21,18.21l0,0
	l0,0V322.9L404.14,322.9z"/>
<path fill="#6A5C99" d="M404.72,321.14L404.72,321.14c2.27,0,4.11,1.84,4.11,4.11v32.9c0,2.27-1.84,4.11-4.11,4.11h0
	c-2.27,0-4.11-1.84-4.11-4.11v-32.9C400.61,322.98,402.45,321.14,404.72,321.14z"/>
<rect x="279.92" y="304.1" fill="#6A5C99" width="5.29" height="29.96"/>
<path fill="#FFD037" d="M292.25,361.09L292.25,361.09c-10.057,0-18.21-8.153-18.21-18.21v-1.17c0-10.057,8.153-18.21,18.21-18.21
	l0,0l0,0v37.6l0,0V361.09z"/>
<path fill="#6A5C99" d="M291.67,362.85L291.67,362.85c-2.27,0-4.11-1.84-4.11-4.11v-32.9c0-2.27,1.84-4.11,4.11-4.11h0
	c2.27,0,4.11,1.84,4.11,4.11v32.9C295.78,361.01,293.94,362.85,291.67,362.85z"/>
<path fill="#FFD037" d="M410.56,271.49c-7.16-14.86-22.75-32.86-56.36-34.32l0,0h-0.4l0,0l-11.91,0.57v0.06
	c-33.39,1.54-48.9,19.46-56,34.3c-4.745,10.05-7.262,21.007-7.38,32.12l4.11-0.1l4.11-0.09c0.152-9.907,2.405-19.669,6.61-28.64
	c9.06-18.61,25.74-28.52,49.56-29.43l0,0l10.53-0.58l0,0c23.82,0.91,40.5,10.81,49.56,29.43c4.23,8.959,6.511,18.714,6.69,28.62
	l4.11,0.09l4.11,0.1C417.796,292.506,415.292,281.546,410.56,271.49z"/>
<rect x="37.61" y="618.7" fill="#D6D6E3" width="560.78" height="150.56"/>
<rect x="37.61" y="628.84" opacity="0.1" enable-background="new    " width="560.78" height="19.54"/>
<rect y="616.53" fill="#D6D6E3" width="636" height="19.54"/>
<path fill="none" stroke="#535461" stroke-width="3" stroke-miterlimit="10" d="M435.51,567.92c0,0,24,44,84,32c60-12,31,111,31,111
	s-9.82,58.68-2.91,58.34"/>
</svg>
