<?xml version="1.0" encoding="utf-8"?>
<!-- Generator: Adobe Illustrator 17.0.0, SVG Export Plug-In . SVG Version: 6.00 Build 0)  -->
<!DOCTYPE svg PUBLIC "-//W3C//DTD SVG 1.1//EN" "http://www.w3.org/Graphics/SVG/1.1/DTD/svg11.dtd">
<svg version="1.1" id="Layer_1" xmlns="http://www.w3.org/2000/svg" xmlns:xlink="http://www.w3.org/1999/xlink" x="0px" y="0px"
	 width="580px" height="400px" viewBox="0 0 580 400" enable-background="new 0 0 580 400" xml:space="preserve">
<g>
	<title>background</title>
	<rect id="canvas_background" x="-1" y="-1" fill="#FFFFFF" width="582" height="402"/>
	<g id="canvasGrid" display="none">
		<rect display="inline" fill="none" width="580" height="400"/>
	</g>
</g>
<g opacity="0.3">
	<title>Layer 1</title>
	<path id="svg_1" fill="#09EFEF" stroke="#FFFFFF" stroke-width="1.5" d="M497.72-55.02
		c122.52-12.251,191.612,190.935,157.481,376.79S492.489,651.931,374.12,618.02C-252.5,438.5-75.828,411.5,216.639,241.23
		C434.777,114.234,172.5-22.5,497.72-55.02z"/>
</g>
<path opacity="0.9" fill="#4C4C78" d="M240.798,434.723c-6.744,23.151-19.099,43.799-30.127,64.878
	c-12.258,23.45-22.992,47.665-32.135,72.495c-9.748,26.442-17.808,54.041-19.909,81.824c-2.101,27.784,2.21,55.942,15.346,76.032
	c22.239,34.085,63.773,38.396,101.67,34.627c44.945-4.475,90.794-17.497,132.869-44.228c29.905-19.017,57.295-44.523,84.47-69.864
	c15.351-14.321,30.814-28.75,43.931-46.241c12.179-16.289,22.034-34.871,31.807-53.33c10.443-19.73,20.898-39.457,29.79-60.118
	c28.392-65.935,39.824-138.403,50.045-209.412c3.604-25.023,7.041-51.169,0.775-73.673c-4.887-17.534-15.308-31.198-26.984-42.147
	c-15.277-14.342-34.648-25.016-55.192-20.02c-30.31,7.378-53.79,45.864-83.975,54.981c-38.688,11.666-70.856-28.775-109.687-25.266
	c-16.161,1.458-32.045,10.483-47.094,20.355c-35.925,23.51-70.602,56.949-74.946,108.895
	C247.774,348.478,253.789,390.135,240.798,434.723z"/>
</svg>
