<?xml version="1.0" encoding="utf-8"?>
<!-- Generator: Adobe Illustrator 17.0.0, SVG Export Plug-In . SVG Version: 6.00 Build 0)  -->
<!DOCTYPE svg PUBLIC "-//W3C//DTD SVG 1.1//EN" "http://www.w3.org/Graphics/SVG/1.1/DTD/svg11.dtd">
<svg version="1.1" id="_x33_0ad16f1-5c99-460e-a21a-a10b3717755f"
	 xmlns="http://www.w3.org/2000/svg" xmlns:xlink="http://www.w3.org/1999/xlink" x="0px" y="0px" width="1080px" height="828.86px"
	 viewBox="0 0 1080 828.86" enable-background="new 0 0 1080 828.86" xml:space="preserve">
<title>messaging</title>
<ellipse opacity="0.1" fill="#46BE69" enable-background="new    " cx="660" cy="779.86" rx="254" ry="49"/>
<path opacity="0.5" fill="#4C4C78" d="M-733.474,70.298c-37.54-0.2-73.73-9.87-110-17.37c-40.343-8.327-81.181-14.045-122.26-17.12
	c-43.75-3.29-88.51-3.56-131,5.17s-82.8,27.22-107.26,55.47c-41.52,47.86-30.22,111.88-8.38,167c25.91,65.37,65,128.44,123,180
	c41.25,36.64,91.14,66.74,140.69,96.59c28,16.86,56.21,33.84,88,46c29.59,11.27,61.62,18.08,93.43,24.82
	c34,7.2,68,14.42,102.73,18.9c110.84,14.32,224.21,0.46,334.88-14.59c39-5.3,79.61-11.33,110.62-30.33
	c24.16-14.81,40.16-36.25,51.56-58.41c14.94-29,22.64-62.56,6.38-91.18c-24-42.22-91.65-60.92-118.2-102.21
	c-34-52.93,12.79-118.37-9.06-175c-9.09-23.57-29.39-43.49-50.6-61.8c-50.55-43.73-115.43-81.35-195.05-65.65
	C-601.384,43.878-661.174,70.688-733.474,70.298z"/>
<linearGradient id="SVGID_1_" gradientUnits="userSpaceOnUse" x1="988.9749" y1="-352.3601" x2="988.9749" y2="405.405" gradientTransform="matrix(1 0 0 -1 -316 448.29)">
	<stop  offset="0" style="stop-color:#808080;stop-opacity:0.25"/>
	<stop  offset="0.54" style="stop-color:#808080;stop-opacity:0.12"/>
	<stop  offset="1" style="stop-color:#808080;stop-opacity:0.1"/>
</linearGradient>
<path fill="url(#SVGID_1_)" d="M769.08,189.98c-0.593-0.667-1.207-1.333-1.84-2c4.83-5.48,9.84-11.11,9.79-18.16
	c-0.05-8.56-7.65-15.14-10.49-23.23c-3.86-11,1.5-22.82,3.7-34.28c3.457-18.823-1.653-38.207-13.94-52.88
	c-2.23-2.64-4.82-5.19-8.15-6.24c-5.06-1.59-10.43,0.62-15.7,1.27c-17.39,2.15-33.2-12.83-50.67-11.49
	c-1.157,0.041-2.296,0.296-3.36,0.75c-2.26,1.08-3.49,3.47-4.88,5.52c-5.43,8-14.54,12-23.6,16.05
	c-1.139,0.336-2.223,0.834-3.22,1.48c-2.72,1.27-5.4,2.59-7.93,4.09c-17.12,10.13-14.63,24.31-4.54,33.06
	c-2,9.83-12,18.48-10.29,28.59c1.36,7.92,9.61,13.31,11.2,21.19c0.92,4.58-0.53,8.94-2.55,13.27c-19.15,4.43-40.79,12.6-42.48,27
	c-2.94,25.06-11.78,94.28-11.78,94.28s-10.26,55.44,28.65,29.18l-0.5,1.48c-7.016,21.236-11.805,43.144-14.29,65.37
	c-0.39,3.31-1.19,5.91-2.63,6.76c-0.52,0.31,0.51,0.8,2.76,1.41c-0.25,0.93-0.53,1.86-0.77,2.8
	c-4.276,16.209-7.008,32.786-8.16,49.51c-1.098,14.812-3.142,29.539-6.12,44.09c-9.22,46.38,0,105.88,0,105.88l20.12,94.72
	l3.44,16.19c2.272,2.512,5.05,4.516,8.15,5.88c1.348,5.803,2.284,11.695,2.8,17.63c0.05,0.66,0.1,1.33,0.14,2
	c-2.451,0.302-4.645,1.666-6,3.73c-7.17,10.08,1,18.15-26.63,38.32c-7.15,5.21-10.59,9.95-11.47,14l0,0
	c-0.94,4.33,1.1,7.84,4.75,10.21l0,0c0.623,0.401,1.271,0.762,1.94,1.08l0,0c0.34,0.16,0.673,0.313,1,0.46l0,0
	c0.353,0.147,0.717,0.283,1.09,0.41h0.06l1.07,0.34h0.08l1.15,0.3h0.1l1.08,0.23h0.14l1.19,0.2h0.13l1.08,0.13h0.21l1.21,0.09h0.16
	h1.08h0.25h1.22h0.16l1.08-0.06h0.29l1.22-0.12h0.14l1.09-0.16l0.3-0.05l1.21-0.23h0.12l1.1-0.27l0.31-0.08
	c0.4-0.11,0.79-0.22,1.19-0.35h0.07l1.11-0.39l0.3-0.11c0.39-0.15,0.77-0.3,1.15-0.47c18.44-8.07,56.34-29.24,56.34-29.24v-0.68
	c0-0.09,0-0.19,0-0.29s0-0.17,0-0.26s0-0.21,0-0.33v-0.31c0-0.14,0-0.28,0-0.43v-0.33c0-0.16,0-0.32,0-0.49s0-0.57,0-0.88l0,0
	c-0.11-8.69-1.01-28.97-5.01-28.18c-1.37,0.27-2.3,2.19-3.25,4.4l-0.47-0.9c-3.9-7.53-9.55-20.45-10.1-33.08
	c3.15-2.281,6.067-4.867,8.71-7.72c0,0-2.06-8.67-3.81-17.82c-1.52-7.93-2.81-16.21-2.34-19.49c1-7.06-12.29-61.51-12.29-61.51
	s1.37-12,4.13-28.63c5.36-32.36,15.91-82.36,31.65-96.5c0.37-0.32,0.73-0.64,1.1-0.92c0,0,11.27,2,20.49,65.54l2.67,28.29
	c0.774,7.836,2.111,15.606,4,23.25c1.82,7.53,3.77,20.13,2.57,37.19c-1.17,16.68-1.67,36.31-1.88,50.09
	c-0.16,10.39-0.16,17.46-0.16,17.46c1.908,1.612,3.968,3.035,6.15,4.25v9.25c-0.023,1.965-0.795,3.846-2.16,5.26l0,0
	c-1.452,1.635-2.509,3.582-3.09,5.69c-1.79,3.22-3.3,8.45-3.93,16.86c-2,27.23-3.07,24.2-3.07,24.2
	c-1.175,2.944-1.955,6.031-2.32,9.18l0,0c-0.06,0.59-0.09,1.18-0.11,1.78c0,0.09,0,0.19,0,0.28c0,0.273,0,0.543,0,0.81
	c0,0.133,0,0.267,0,0.4c0,0.133,0.017,0.333,0.05,0.6c0,0.18,0.023,0.36,0.07,0.54c0,0.13,0,0.26,0.06,0.38s0.09,0.48,0.15,0.72
	l0.08,0.31c0.07,0.25,0.14,0.49,0.22,0.73l0.08,0.22c0.08,0.22,0.17,0.433,0.27,0.64l0.09,0.19c0.12,0.24,0.25,0.48,0.4,0.71
	l0.12,0.19c0.151,0.229,0.315,0.449,0.49,0.66l0.13,0.15c0.194,0.222,0.401,0.433,0.62,0.63l0.07,0.06
	c0.226,0.197,0.463,0.381,0.71,0.55l0.11,0.08c0.27,0.176,0.551,0.337,0.84,0.48l0.17,0.09c0.326,0.149,0.659,0.279,1,0.39
	l0.17,0.05c0.374,0.124,0.755,0.227,1.14,0.31l0,0c0.4,0.08,0.82,0.15,1.26,0.19h0.18c0.44,0,0.9,0.07,1.38,0.07h0.27
	c0.49,0,1,0,1.52,0h0.25c0.56,0,1.15-0.1,1.76-0.19c21.51-3,31.76-5,30.73-17.14c-0.62-7.29-2.35-17.88-3.63-25.15
	c-0.648-3.689-1.841-7.261-3.54-10.6c0.053-0.567,0.103-1.15,0.15-1.75c0.37-5,0.35-11-1.17-14.93l0.47-8.83
	c5.323-1.354,10.134-4.236,13.84-8.29c0,0,0.15-6.54,0.6-15.22c0.68-13.4,2-31.89,4.52-39.23c4.1-12.1,0-54.45,0-54.45
	s-15.37-72.6-1-103.86c12.65-27.57,12.54-55.16,0.37-82c0.24-0.189,0.458-0.403,0.65-0.64c0,0-3.07-2-2-25.21
	c0.78-17.7-4.4-36-6.9-43.64c3.91,1.678,7.917,3.12,12,4.32c23.51,7.01,25.56-19.25,25.56-19.25l5.12-39.33l6.08-58.57l0,0
	C778.66,214.93,780.89,203.43,769.08,189.98z M664.94,151.13c0,0.65-0.07,1.3-0.14,1.94c-0.19,2.085-0.629,4.14-1.31,6.12
	c0.7-2.676,1.126-5.417,1.27-8.18L664.94,151.13z M726.87,294.28c0.36,0.67,0.71,1.31,1,2l-2.59-1.32
	c0.959-4.755,2.511-9.371,4.62-13.74c2.545-5.084,4.64-10.381,6.26-15.83c-0.073,6.296,0.231,12.59,0.91,18.85
	C739.16,300.33,726.87,294.28,726.87,294.28L726.87,294.28z"/>
<path fill="#F78181" d="M640,75.05c-3.27,2.23-6.7,4.81-7.86,8.6c-1.88,6.11,2.84,12.24,3.3,18.62
	c0.85,11.59-12.26,21.17-10.33,32.64c1.32,7.86,9.38,13.2,10.93,21c2.26,11.4-10.09,21.45-9.12,33c0.52,6.17,4.81,11.41,9.67,15.23
	c6.833,5.349,15.01,8.706,23.63,9.7c-0.57-9.91-7.93-18.94-6.66-28.79c0.87-6.75,5.62-12.28,8.37-18.51
	c4.83-10.94,3.28-23.6,0.39-35.2c-2.89-11.6-7.08-23.07-7.29-35c-0.13-7.2,3.25-17.77,0.77-24.6
	C652.79,63.43,645.61,71.22,640,75.05z"/>
<path opacity="0.1" enable-background="new    " d="M640,75.05c-3.27,2.23-6.7,4.81-7.86,8.6c-1.88,6.11,2.84,12.24,3.3,18.62
	c0.85,11.59-12.26,21.17-10.33,32.64c1.32,7.86,9.38,13.2,10.93,21c2.26,11.4-10.09,21.45-9.12,33c0.52,6.17,4.81,11.41,9.67,15.23
	c6.833,5.349,15.01,8.706,23.63,9.7c-0.57-9.91-7.93-18.94-6.66-28.79c0.87-6.75,5.62-12.28,8.37-18.51
	c4.83-10.94,3.28-23.6,0.39-35.2c-2.89-11.6-7.08-23.07-7.29-35c-0.13-7.2,3.25-17.77,0.77-24.6
	C652.79,63.43,645.61,71.22,640,75.05z"/>
<path fill="#FFB9B9" d="M649.59,744.36l-9,9c0,0-32,17-28-6c1.094-6.837,1.326-13.785,0.69-20.68
	c-0.826-9.624-2.735-19.124-5.69-28.32l30-6c-5,15.68,3.23,35.42,8.36,45.47C648,741.88,649.59,744.36,649.59,744.36z"/>
<path fill="#FFB9B9" d="M717.73,726.17c-0.225,3.081-0.605,6.148-1.14,9.19c0,0-25,17-27-2c-1.3-12.38,1.64-18,3.86-20.36l0,0
	c1.331-1.41,2.081-3.271,2.1-5.21v-22.43l22,7l-1,19C718.07,715.31,718.09,721.21,717.73,726.17z"/>
<path opacity="0.05" enable-background="new    " d="M649.59,744.36l-9,9c0,0-32,17-28-6c1.094-6.837,1.326-13.785,0.69-20.68
	c7-1,15.31,6.68,15.31,6.68c11.72,16.54,14.88,10.28,17.36,4.47C648,741.88,649.59,744.36,649.59,744.36z"/>
<path fill="#8189A6" d="M628.59,735.36c0,0-14-13-21-3s1,18-26,38s0,33,18,25s55-29,55-29s0-33-5-32S645.59,759.36,628.59,735.36z"
	/>
<path opacity="0.05" enable-background="new    " d="M717.73,726.17c-0.225,3.081-0.605,6.148-1.14,9.19c0,0-25,17-27-2
	c-1.3-12.38,1.64-18,3.86-20.36c1.772-1.331,4.132-1.577,6.14-0.64c4-1.78,8.4,1.19,12,5
	C714.073,719.967,716.144,722.938,717.73,726.17z"/>
<path fill="#8189A6" d="M699.59,714.36c0,0-11-6-13,21s-3,24-3,24s-10,24,11,21s31-5,30-17c-0.6-7.23-2.3-17.74-3.55-24.94
	c-1.197-7.122-4.471-13.731-9.41-19C708,715.54,703.59,712.58,699.59,714.36z"/>
<path fill="#4C4C78" d="M735.59,586.36c0,0,4,42,0,54c-2.43,7.28-3.75,25.62-4.41,38.91c-0.44,8.6-0.59,15.09-0.59,15.09
	c-19,20-41,0-41,0s0-7,0.16-17.32c0.21-13.67,0.7-33.14,1.84-49.68c1.17-16.92-0.73-29.41-2.51-36.88
	c-1.836-7.582-3.133-15.285-3.88-23.05l-2.61-28.06c-9-63-20-65-20-65c-0.36,0.28-0.71,0.59-1.07,0.91
	c-15.37,14-25.67,63.61-30.9,95.7c-2.69,16.51-4,28.39-4,28.39s13,54,12,61c-0.46,3.25,0.8,11.47,2.28,19.33
	c1.71,9.07,3.72,17.67,3.72,17.67c-25,27-42,6-42,6l-3.36-16.06l-19.64-93.94c0,0-9-59,0-105c2.917-14.436,4.921-29.042,6-43.73
	c1.135-16.58,3.813-33.018,8-49.1c1.22-4.76,2.573-9.483,4.06-14.17c2.23-7.03,37.55-6.53,72.91-6.53c26.52,0,51.8,3.67,59.09,16.53
	c1.68,2.96,3.207,5.927,4.58,8.9c12.66,27.21,13,55.16,0.42,83.1C720.59,514.36,735.59,586.36,735.59,586.36z"/>
<path fill="#FFB9B9" d="M651.59,223.36c0,0-53-54-13-50c9.07,0.91,15.21-0.71,19.28-3.75c4.64-3.46,6.59-8.76,7.13-14.29
	c1.1-11-3.41-23-3.41-23s54-43,43,11c-1.208,5.488-1.911,11.074-2.1,16.69c-0.18,11.46,3.59,15.85,8.88,17.65
	c8.92,3.05,22.18-1.22,28.22,8.66C750.59,204.36,651.59,223.36,651.59,223.36z"/>
<path opacity="0.05" enable-background="new    " d="M704.59,143.36c-1.208,5.488-1.911,11.074-2.1,16.69
	c-1.439,0.498-2.904,0.916-4.39,1.25c-11.391,2.568-23.336,0.403-33.1-6c1.1-11-3.41-23-3.41-23S715.59,89.36,704.59,143.36z"/>
<path fill="#FFB9B9" d="M731.59,117.36c0,23.748-19.252,43-43,43s-43-19.252-43-43c0-0.8,0-1.6,0.07-2.39
	c1.354-23.71,21.672-41.832,45.382-40.478C713.777,75.79,731.557,94.588,731.59,117.36z"/>
<path opacity="0.05" enable-background="new    " d="M651.59,223.36c0,0-53-54-13-50c9.07,0.91,15.21-0.71,19.28-3.75
	c-7.74,12.84-16.45,35.93,22.72,33.75c35.85-2,35.24-16.28,30.78-25.66c8.92,3.05,22.18-1.22,28.22,8.66
	C750.59,204.36,651.59,223.36,651.59,223.36z"/>
<path opacity="0.1" enable-background="new    " d="M735.59,404.36c-9.1,11.83-125.1-3.68-142.06-8.83
	c1.22-4.76,2.573-9.483,4.06-14.17c2.23-7.03,37.55-6.53,72.91-6.53c26.52,0,51.8,3.67,59.09,16.53c1.68,2.96,3.207,5.927,4.58,8.9
	C734.81,403.84,735.59,404.36,735.59,404.36z"/>
<path fill="#F9D048" d="M662.59,164.36c0,0-67.5,5.5-70.5,31.5c-2.87,24.86-11.5,93.5-11.5,93.5s-10,55,28,29l-0.49,1.46
	c-6.853,21.077-11.527,42.8-13.95,64.83c-0.39,3.28-1.16,5.86-2.57,6.71c-5,3,134,23,144,10c0,0-3-2-2-25s-8-47-8-47s-8-24,3-47
	s7-30,7-30l38-29c0,0,8.21-14.07-6.8-31.43c-9.1-10.374-21.95-16.705-35.72-17.6l-26.2-1.9c0,0,28.72,30.9-25.28,33.9
	S662.59,164.36,662.59,164.36z"/>
<path opacity="0.05" enable-background="new    " d="M617.59,219.36c0,0,2,16-2,21s-5,28,0,42"/>
<path opacity="0.1" enable-background="new    " d="M661.52,475.27c-15.37,14-25.67,63.61-30.9,95.7
	c-7.28-44.67,23-118.61,23-118.61L661.52,475.27z"/>
<path opacity="0.1" enable-background="new    " d="M644.59,697.36c-25,27-42,6-42,6l-3.36-16.06c9.45,4.91,25.42,8.72,41.64-7.61
	C642.58,688.76,644.59,697.36,644.59,697.36z"/>
<path opacity="0.1" enable-background="new    " d="M731.18,679.27c-0.44,8.6-0.59,15.09-0.59,15.09c-19,20-41,0-41,0
	s0-7,0.16-17.32C698,682.28,712.83,688.05,731.18,679.27z"/>
<path fill="#CDD0DB" d="M626.34,253.36h60.5c2.071,0,3.75,1.679,3.75,3.75v20.5c0,2.071-1.679,3.75-3.75,3.75h-60.5
	c-2.071,0-3.75-1.679-3.75-3.75v-20.5C622.59,255.039,624.269,253.36,626.34,253.36z"/>
<path opacity="0.05" enable-background="new    " d="M626.34,253.36h60.5c2.071,0,3.75,1.679,3.75,3.75v20.5
	c0,2.071-1.679,3.75-3.75,3.75h-60.5c-2.071,0-3.75-1.679-3.75-3.75v-20.5C622.59,255.039,624.269,253.36,626.34,253.36z"/>
<path fill="#CDD0DB" d="M626.34,254.36h60.5c2.071,0,3.75,1.679,3.75,3.75v20.5c0,2.071-1.679,3.75-3.75,3.75h-60.5
	c-2.071,0-3.75-1.679-3.75-3.75v-20.5C622.59,256.039,624.269,254.36,626.34,254.36z"/>
<circle fill="#9DA7C0" cx="676.09" cy="267.86" r="3"/>
<path opacity="0.05" enable-background="new    " d="M593.65,297.7c1.827-5.439,5.962-9.794,11.3-11.9c3.42-1.42,7.59-4,9.7-8.71
	c3.94-8.73,10.94-17.73,28.94-11.73s-5,10-5,10s41-6,25,6s-36,19-36,19l-9.85,10.43c-6,6.37-16.42,6.34-22-0.44
	C593.24,307.29,591.92,303.17,593.65,297.7z"/>
<path fill="#FFB9B9" d="M592.65,295.7c1.827-5.439,5.962-9.794,11.3-11.9c3.42-1.42,7.59-4,9.7-8.71
	c3.94-8.73,10.94-17.73,28.94-11.73s-5,10-5,10s41-6,25,6s-36,19-36,19l-9.85,10.43c-6,6.37-16.42,6.34-22-0.44
	C592.24,305.29,590.92,301.17,592.65,295.7z"/>
<path opacity="0.05" enable-background="new    " d="M733.59,316.36l-7,17l-9-6.59l-25-18.41l-17-11c-24-18,0-21,0-21c-9-4,0-8,0-8
	c32-7,26,19,26,19l20.27,10.51l6.73,3.49L733.59,316.36z"/>
<path fill="#FFB9B9" d="M735.59,314.36l-7,17l-9-6.59l-25-18.41l-17-11c-24-18,0-21,0-21c-9-4,0-8,0-8c32-7,26,19,26,19l20.27,10.51
	l6.73,3.49L735.59,314.36z"/>
<path opacity="0.05" enable-background="new    " d="M735.59,314.36l-7,17l-9-6.59c8.11,0.29,17.69-3.63,4.23-28.9l6.73,3.49
	L735.59,314.36z"/>
<path fill="#F9D048" d="M772.59,213.36l1.93,7.87l-5.93,58.13l-5,39c0,0-2,26-25,19s-25-14-25-14s33,11,12-28c0,0,12,6,10-10
	s0-44,0-44L772.59,213.36z"/>
<path opacity="0.05" enable-background="new    " d="M731.59,117.36c0.002,20.086-13.901,37.498-33.49,41.94
	c-1.44-4.16-2.46-8.3-1.41-12.51c2-8.17,11.46-14.13,10.41-22.48c-0.103-0.945-0.448-1.847-1-2.62c-2.11-2.78-6.41-1.4-9.83-0.71
	c-8.84,1.76-18.52-4.21-20.92-12.9c-7.831,7.702-19.32,10.364-29.74,6.89c1.354-23.71,21.672-41.832,45.382-40.478
	c22.735,1.298,40.515,20.096,40.548,42.868L731.59,117.36z"/>
<path fill="#F78181" d="M676.4,106.08c2.39,8.69,12.08,14.66,20.91,12.89c3.42-0.68,7.72-2.06,9.83,0.72
	c0.539,0.772,0.866,1.672,0.95,2.61c1.06,8.36-8.37,14.31-10.4,22.49c-2.09,8.42,4,16.55,5.35,25.12c0.71,4.69,0,9.47,0,14.21
	c0,4.74,1.12,9.84,4.64,13s10,3.22,12.37-0.9c11.25,5.95,6.76,24.38,15.3,33.81c4.71,5.2,12.46,6.45,19.45,5.79
	c1.637-0.026,3.229-0.542,4.57-1.48c1.156-1.14,1.937-2.605,2.24-4.2c1.764-6.676,1.461-13.73-0.87-20.23
	c-1.12-3.11-2.73-6.25-2.31-9.52c0.32-2.56,1.85-4.79,3.47-6.8c5.37-6.66,12.7-13.1,12.65-21.66s-7.47-15-10.24-23
	c-3.77-10.93,1.46-22.64,3.61-34c3.403-18.648-1.571-37.849-13.6-52.5c-2.18-2.62-4.71-5.15-8-6.19
	c-4.93-1.58-10.18,0.62-15.33,1.26c-17,2.13-32.41-12.73-49.47-11.4c-1.13,0.043-2.243,0.298-3.28,0.75
	c-2.21,1.07-3.4,3.44-4.77,5.48c-7.53,11.25-22.33,14.46-33.93,21.44C605.71,94.14,650.49,131.02,676.4,106.08z"/>
<path opacity="0.3" fill="#FFFFFF" enable-background="new    " d="M599.59,791.36c-11.69,5.19-27.16,1.53-29.19-7.14
	c-2.45,11.46,15.84,17.08,29.19,11.14c18-8,55-29,55-29s0-1.55-0.05-4C653.46,763,617.32,783.43,599.59,791.36z"/>
<path opacity="0.3" fill="#FFFFFF" enable-background="new    " d="M724.54,762.78c-1.15,9-11.13,10.89-29.95,13.58
	c-9.57,1.37-12.69-2.88-13.27-7.9c-0.63,6.43,1.2,13.62,13.27,11.9c21-3,31-5,30-17C724.57,763.17,724.55,762.97,724.54,762.78z"/>
<path fill="none" stroke="#535461" stroke-width="2" stroke-miterlimit="10" d="M848.26,780.82c0,0-14.48-73.39,15.33-123.64
	c12.64-21.008,18.125-45.55,15.63-69.94c-1.286-11.57-3.629-22.998-7-34.14"/>
<path fill="#46BE69" d="M890.85,521.3c-0.8,8.75-19,32.68-19,32.68s-13.52-26.84-12.71-35.6c0.624-8.77,8.239-15.374,17.01-14.75
	c8.77,0.624,15.374,8.239,14.75,17.01c-0.016,0.217-0.035,0.434-0.06,0.651L890.85,521.3z"/>
<path fill="#46BE69" d="M912.6,572.2c-5.43,6.91-33.7,17.12-33.7,17.12s3.24-29.88,8.67-36.79c5.134-7.138,15.083-8.761,22.22-3.627
	c7.138,5.134,8.761,15.083,3.627,22.22c-0.267,0.371-0.549,0.73-0.847,1.077H912.6z"/>
<path fill="#46BE69" d="M903.84,654.96c-8.18,3.22-37.73-2.24-37.73-2.24s17.88-24.16,26.06-27.38
	c8.128-3.352,17.435,0.52,20.787,8.649c3.352,8.128-0.52,17.435-8.649,20.787C904.153,654.84,903.997,654.901,903.84,654.96z"/>
<path fill="#46BE69" d="M883.11,716.08c-7.52,4.56-37.57,4.17-37.57,4.17s13.55-26.82,21.06-31.39
	c7.441-4.684,17.27-2.448,21.954,4.993s2.448,17.27-4.993,21.954C883.412,715.9,883.262,715.991,883.11,716.08L883.11,716.08z"/>
<path fill="#46BE69" d="M845.46,587.95c5.72,6.68,34.39,15.68,34.39,15.68s-4.5-29.72-10.21-36.39
	c-5.815-6.595-15.875-7.228-22.47-1.413C840.708,571.524,839.951,581.328,845.46,587.95z"/>
<path fill="#46BE69" d="M822.12,659.75c7.45,4.66,37.51,4.67,37.51,4.67s-13.18-26.99-20.63-31.67
	c-7.392-4.76-17.244-2.627-22.004,4.766c-4.76,7.392-2.627,17.244,4.766,22.004c0.122,0.078,0.245,0.155,0.369,0.23H822.12z"/>
<path fill="#46BE69" d="M809,732.64c6.56,5.85,36.18,10.95,36.18,10.95s-8.43-28.85-15-34.7c-6.363-6.068-16.44-5.829-22.508,0.534
	s-5.829,16.44,0.534,22.508C808.463,732.177,808.728,732.413,809,732.64z"/>
<path fill="#F78181" d="M568,134.86c-0.284-7.794-6.671-13.973-14.47-14H291.88c-7.428-0.081-13.759,5.372-14.78,12.73
	c-0.956,7.973,4.733,15.211,12.707,16.167c0.559,0.067,1.121,0.101,1.683,0.103h262h0.91c4.69-0.4,9.159,2.068,11.32,6.25
	c0.8,1.577,1.369,3.261,1.69,5l0.59,0.29v-26.5V134.86z"/>
<path fill="#F78181" d="M568,228.86c-0.284-7.794-6.671-13.973-14.47-14H440.88c-7.428-0.081-13.759,5.372-14.78,12.73
	c-0.955,7.973,4.733,15.211,12.707,16.167c0.559,0.067,1.121,0.101,1.683,0.103h113h0.91c4.69-0.4,9.159,2.068,11.32,6.25
	c0.8,1.577,1.369,3.261,1.69,5l0.59,0.29v-26.5V228.86z"/>
<path fill="#F9D048" d="M228,87.86c0.17-7.74,4.35-14,9.45-14h171.08c5.21,0,9.47,6.52,9.47,14.5s-4.26,14.5-9.47,14.5H237.42
	c-3.311-0.105-6.323,1.903-7.5,5c-0.76,2.011-1.277,4.106-1.54,6.24l-0.38,0.29v-26.5V87.86z"/>
<path fill="#F9D048" d="M228,181.86c0.21-7.74,5.29-14,11.49-14h208c6.33,0,11.51,6.52,11.51,14.5c0,7.98-5.18,14.5-11.51,14.5h-208
	c-4,0-7.72,1.84-9.12,5c-0.914,1.982-1.544,4.082-1.87,6.24l-0.47,0.29v-26.5L228,181.86z"/>
<circle opacity="0.2" fill="#FFFFFF" enable-background="new    " cx="447" cy="228.86" r="5"/>
<circle opacity="0.2" fill="#FFFFFF" enable-background="new    " cx="464" cy="228.86" r="5"/>
<circle opacity="0.2" fill="#FFFFFF" enable-background="new    " cx="481" cy="228.86" r="5"/>
</svg>
